<svg width="80" height="80" viewBox="0 0 80 80" fill="none" xmlns="http://www.w3.org/2000/svg" id="penguin">
<circle cx="40" cy="40" r="39" fill="white" stroke="url(#paint0_linear)" stroke-width="2"/>
<path fill-rule="evenodd" clip-rule="evenodd" d="M35.0618 64.6969V66.2321L35.784 67.1838C36.5365 68.1767 35.3126 67.9259 34.0091 67.962L33.022 67.9879L32.2747 68.567C30.9498 69.5909 30.3249 70.0925 30.7071 68.3744L30.9011 67.4951L29.4913 67.5032C28.0653 67.3999 28.2571 67.166 29.6057 66.6172L31.8491 65.7017L32.1242 64.5804C26.8216 60.7959 26.8739 51.7937 28.398 46.0654L30.8015 37.0284C27.4095 40.852 27.5106 42.4012 25.9422 47.2501C25.5121 48.5809 24.5029 49.5562 24.202 47.6868C23.5845 43.8685 24.396 39.1611 26.4571 36.0428C28.9594 32.2554 33.8512 25.2369 33.9818 23.6567C34.1728 21.3491 33.3569 19.0763 33.3569 16.3718C33.3569 9.2094 46.6431 9.2094 46.6431 16.3718C46.6431 19.0763 45.8272 21.3491 46.0182 23.6567C46.1488 25.2369 51.0406 32.2554 53.5429 36.0428C55.604 39.1611 56.4155 43.8685 55.798 47.6868C55.4971 49.5562 54.4879 48.5809 54.0578 47.2501C52.4894 42.4012 52.5905 40.852 49.1985 37.0284L51.602 46.0654C53.1261 51.7937 53.1784 60.7959 47.8758 64.5804L48.151 65.7017L50.3943 66.6172C51.7429 67.166 51.9347 67.3999 50.5087 67.5032L49.0989 67.4951L49.2929 68.3744C49.6751 70.0925 49.0502 69.5909 47.7253 68.567L46.978 67.9879L45.9909 67.962C44.6874 67.9259 43.4635 68.1767 44.216 67.1838L44.9382 66.2321V64.6969H35.0618ZM43.6059 15.7816C44.1068 15.7816 44.5126 16.1874 44.5126 16.6876C44.5126 17.1892 44.1068 17.5949 43.6059 17.5949C43.105 17.5949 42.6993 17.1892 42.6993 16.6876C42.6993 16.1874 43.105 15.7816 43.6059 15.7816ZM36.3941 15.7816C36.8942 15.7816 37.3 16.1874 37.3 16.6876C37.3 17.1892 36.8942 17.5949 36.3941 17.5949C35.8924 17.5949 35.4867 17.1892 35.4867 16.6876C35.4867 16.1874 35.8924 15.7816 36.3941 15.7816ZM39.9993 21.4214L41.9948 18.537L41.2821 17.7226C41.3581 16.2103 43.0851 14.2325 44.5377 14.9584C46.0485 15.7123 46.1672 20.8549 42.1194 22.1319C46.362 25.5047 48.6356 38.6883 48.6356 46.224C48.6356 54.9142 44.7693 61.9593 40 61.9593C35.2307 61.9593 31.3644 54.9142 31.3644 46.224C31.3644 38.6979 33.6778 25.5393 37.9219 22.1451C33.7014 20.8519 33.9582 15.384 35.6106 14.9001C37.0366 14.4818 38.5954 16.3054 38.6692 17.7661L38.0045 18.537L39.9993 21.4214Z" fill="#4B9200"/>
</svg>
