<svg width="80" height="80" viewBox="0 0 80 80" fill="none" xmlns="http://www.w3.org/2000/svg" id="alligator">
<circle cx="40" cy="40" r="39" fill="white" stroke="url(#paint0_linear)" stroke-width="2"/>
<path d="M27.6001 43.4318C27.434 43.1912 27.2528 42.9248 27.1235 42.7299C27.1131 42.7144 27.1002 42.7016 27.0856 42.6921C27.071 42.6827 27.055 42.6769 27.0385 42.6751C26.3946 42.599 24.8228 42.4087 23.7251 42.2762C23.7079 42.2743 23.6906 42.2767 23.6742 42.2831C23.6578 42.2895 23.6427 42.2999 23.6298 42.3136C23.6169 42.3272 23.6064 42.3439 23.599 42.3627C23.5916 42.3814 23.5875 42.4017 23.5869 42.4224C23.5768 42.7451 23.5844 43.0862 23.5958 43.2872C23.177 43.6739 22.8039 44.1272 22.4866 44.6346C22.3759 44.8029 22.3069 45.0052 22.2875 45.2183C22.2681 45.4315 22.299 45.647 22.3768 45.84C22.4546 46.033 22.576 46.1959 22.7273 46.3098C22.8785 46.4238 23.0534 46.4843 23.232 46.4845H25.2208C25.3805 46.4846 25.5381 46.442 25.6824 46.3598C25.8267 46.2777 25.9539 46.158 26.0549 46.0094L27.6026 43.6236C27.6204 43.5961 27.6298 43.562 27.6294 43.5272C27.6289 43.4923 27.6186 43.4587 27.6001 43.4318ZM69.589 35.6608C67.8892 33.7622 65.3109 32.0661 61.7046 30.472C54.8672 27.4513 38.6497 25.1035 37.9626 25.0046C37.894 24.9952 37.8245 25.0003 37.7573 25.0198L32.1305 26.7098H23.8898C22.2889 26.7098 19.594 27.4376 18.8575 29.3712C16.8053 30.6882 14.3702 32.2792 13.7301 32.6979C13.0697 32.6157 10.9046 32.4619 9.00199 33.6358C8.6841 33.8319 8.42047 34.1346 8.24314 34.5072C8.06581 34.8799 7.98241 35.3063 8.00309 35.7348C8.02377 36.1633 8.14763 36.5754 8.35961 36.9209C8.5716 37.2664 8.86258 37.5306 9.1972 37.6812C9.21044 37.6877 9.22399 37.6933 9.23776 37.6979C9.46212 37.7756 14.7467 39.6163 16.6354 39.9178C17.1881 40.0061 17.7864 40.1081 18.4354 40.2177C19.5864 40.4126 20.8679 40.6288 22.3028 40.8435C22.3025 40.8435 22.3022 40.8433 22.3019 40.843C22.3017 40.8428 22.3016 40.8424 22.3016 40.842L27.6495 41.5027C27.6495 41.5027 28.7904 43.2597 28.9653 43.4912C28.6666 43.9107 28.4292 44.3879 28.263 44.9026C28.2027 45.0761 28.179 45.2648 28.194 45.452C28.209 45.6392 28.2623 45.819 28.3491 45.9756C28.4358 46.1321 28.5535 46.2604 28.6915 46.3492C28.8295 46.438 28.9836 46.4845 29.1402 46.4845H31.2038C31.3655 46.485 31.5252 46.4415 31.671 46.3574C31.8167 46.2733 31.9448 46.1507 32.0455 45.9988L33.573 43.7089C33.7179 43.4918 33.8006 43.2242 33.8087 42.9461C33.8143 42.7424 33.815 42.4466 33.7961 42.074C33.7951 42.0531 33.7977 42.0322 33.8038 42.0125C33.8098 41.9929 33.8192 41.975 33.8313 41.9599C33.8434 41.9448 33.8579 41.9329 33.874 41.9248C33.8901 41.9168 33.9074 41.9129 33.9249 41.9132C35.3984 41.9495 41.1107 41.9239 43.0524 41.8371C43.082 41.8356 43.1112 41.8467 43.1347 41.8683C43.1583 41.89 43.1748 41.9209 43.1813 41.9557C43.2499 42.2859 43.2681 42.6283 43.2351 42.9664C42.6149 43.3918 42.0878 43.9883 41.6975 44.7066C41.6014 44.8785 41.5461 45.0785 41.5373 45.2853C41.5286 45.4921 41.5669 45.6978 41.648 45.8804C41.7291 46.0631 41.85 46.2158 41.9979 46.3223C42.1457 46.4288 42.3148 46.485 42.4872 46.4849H45.3273C45.5215 46.4851 45.7121 46.422 45.8787 46.3022C46.3731 45.7998 47.6354 44.5297 47.8763 44.2872C47.9029 44.2602 47.9245 44.2269 47.9397 44.1894L49.2265 41.0627L49.4483 41.0384C49.821 40.9973 50.5122 40.9275 51.3902 40.8953C54.2385 40.7907 59.6144 39.9589 61.5956 39.5874C62.4031 39.4351 63.6618 40.0868 64.345 41.0094C64.5542 41.2926 64.8875 41.8499 64.7621 42.3949C64.3006 44.3864 62.1876 46.2393 58.812 47.6142C54.6441 49.3118 41.6196 49.8934 36.2134 50.0639C35.9056 50.0739 35.6102 50.2113 35.3771 50.4529C35.144 50.6944 34.9876 51.0254 34.9344 51.3896C34.8811 51.7538 34.9343 52.1289 35.0849 52.4514C35.2355 52.7739 35.4743 53.024 35.7608 53.1593C38.0729 54.2494 42.062 55 47.1096 55C51.3497 55 56.3376 54.4702 61.7034 53.1669C68.7778 51.4495 72 45.9805 72 41.6261C72 39.4549 71.1887 37.4482 69.589 35.6608ZM20.2595 30.9836C20.3989 30.9836 20.5351 31.0332 20.651 31.1262C20.7669 31.2192 20.8573 31.3515 20.9106 31.5061C20.9639 31.6608 20.9779 31.831 20.9507 31.9952C20.9235 32.1595 20.8564 32.3103 20.7578 32.4287C20.6593 32.5471 20.5337 32.6277 20.397 32.6604C20.2602 32.693 20.1185 32.6763 19.9898 32.6122C19.861 32.5481 19.7509 32.4396 19.6735 32.3004C19.596 32.1612 19.5547 31.9975 19.5547 31.8301C19.5547 31.6056 19.629 31.3903 19.7611 31.2315C19.8933 31.0728 20.0726 30.9836 20.2595 30.9836ZM18.5939 38.8611C17.9436 38.75 17.3415 38.648 16.7863 38.5597C15.4578 38.3481 12.2027 37.2792 10.551 36.722C11.1024 36.7981 11.5308 36.8149 11.5422 36.8149C11.8743 36.8149 12.6881 36.8407 13.63 36.8712C14.4387 36.8956 15.3336 36.9245 16.1728 36.9458L16.8813 37.9781C16.8982 38.0026 16.9199 38.0218 16.9443 38.034C16.9688 38.0461 16.9954 38.0509 17.0218 38.0479C17.0482 38.0449 17.0735 38.0342 17.0957 38.0167C17.1178 37.9993 17.136 37.9755 17.1488 37.9476L17.5899 36.9732C17.8333 36.9747 18.0602 36.9763 18.2668 36.9763L18.8448 37.9568C18.8601 37.9828 18.8805 38.004 18.9041 38.0184C18.9278 38.0328 18.954 38.04 18.9805 38.0394C19.0071 38.0388 19.0331 38.0304 19.0562 38.0149C19.0794 37.9995 19.0991 37.9774 19.1136 37.9507L19.6713 36.9093C21.8135 36.7326 25.2474 36.4647 27.1526 40.0792C23.6655 39.7199 20.8742 39.2479 18.5939 38.8611ZM48.5483 45.0594C48.507 45.2538 48.509 45.458 48.5543 45.6512C48.5996 45.8444 48.6864 46.0198 48.8061 46.1599C48.9935 46.3732 49.2431 46.4897 49.5013 46.4845H52.2205C52.3822 46.4851 52.542 46.4418 52.6877 46.3576C52.8335 46.2735 52.9615 46.1508 53.0622 45.9988L54.7658 43.4409C54.8678 43.2884 54.9396 43.1101 54.9759 42.9194C55.0121 42.7288 55.0118 42.5307 54.975 42.3401L54.925 41.8479C54.9213 41.8092 54.9053 41.7737 54.8803 41.7489C54.8553 41.724 54.8233 41.7117 54.7909 41.7145C53.6398 41.8155 50.5988 42.0142 49.8955 42.0664C49.8644 42.0686 49.8351 42.0845 49.8133 42.111C49.7914 42.1376 49.7785 42.1729 49.777 42.2103C49.76 42.4759 49.7591 42.7427 49.7741 43.0085C49.4675 43.2367 49.2014 43.5353 48.991 43.8873C48.7807 44.2392 48.6302 44.6375 48.5483 45.0594Z" fill="#4B9200"/>
<defs>
<linearGradient id="paint0_linear" x1="-3.5443" y1="11.8519" x2="92.9047" y2="54.7202" gradientUnits="userSpaceOnUse">
<stop stop-color="#F9804B"/>
<stop offset="1" stop-color="#4B9200"/>
</linearGradient>
</defs>
</svg>
