<svg width="80" height="80" viewBox="0 0 80 80" fill="none" xmlns="http://www.w3.org/2000/svg" id="sloth">
<circle cx="40" cy="40" r="39" fill="white" stroke="url(#paint0_linear)" stroke-width="2"/>
<path d="M46.9345 23.6112C46.1576 23.2983 40.9514 21.8115 39.3201 24.1588C39.3201 24.1588 38.6983 24.7064 39.7089 26.0371C39.7089 26.0371 40.4858 24.5503 41.5739 24.3936C41.772 24.3653 42.0464 24.3527 42.3664 24.3489L42.5064 23.2196L42.7864 24.3489C44.2301 24.3621 46.2626 24.4893 47.0126 24.3155C47.0126 24.3155 46.4689 24.7064 44.4483 24.7851L44.5258 26.8196L43.8589 24.804C43.0126 24.8292 42.3526 24.8575 41.6726 25.1225L41.8064 27.68L41.1514 25.3711C40.6751 25.6412 40.1639 26.0472 39.5533 26.6628C39.5533 26.6628 40.2526 28.6973 42.1951 28.6192C44.1376 28.5411 48.2557 25.2541 48.8776 23.3764C48.877 23.3764 47.7114 23.9246 46.9345 23.6112Z" fill="black"/>
<path d="M41.8105 16.4704C41.0224 16.7543 36.1449 19.1148 36.4674 21.9619C36.4674 21.9619 36.3624 22.7871 37.9937 23.1094C37.9937 23.1094 37.5974 21.4772 38.3093 20.6344C38.4387 20.4808 38.6362 20.2882 38.8731 20.0723L38.2356 19.1331L39.1881 19.7921C40.2781 18.8385 41.8843 17.5777 42.3318 16.9469C42.3318 16.9469 42.1818 17.6029 40.7199 19.0097L42.1168 20.482L40.2912 19.4176C39.6743 20.0011 39.1981 20.4625 38.8631 21.1153L40.6456 22.942L38.6362 21.6497C38.4574 22.1703 38.3412 22.8148 38.2887 23.6835C38.2887 23.6835 40.1512 24.741 41.5543 23.3858C42.958 22.0312 43.8805 16.8211 43.1105 15C43.1112 14.9987 42.5987 16.1865 41.8105 16.4704Z" fill="black"/>
<path d="M64.8061 35.0366C64.7286 32.8454 62.2417 30.4975 61.1542 29.2455C60.0667 27.9935 57.8911 27.4459 55.9486 27.4459C54.0061 27.4459 52.9961 29.0894 52.9961 29.0894C52.9961 29.0894 55.7936 28.385 56.5705 28.6198C57.3474 28.8546 61.2324 31.5154 62.7867 34.4109C64.3405 37.3065 62.6311 39.3409 61.8542 40.8277C61.0774 42.3145 57.8136 42.706 55.0942 42.4713C52.3749 42.2365 50.8986 40.8277 50.2768 39.5757C49.6549 38.3237 49.733 36.0545 49.733 36.0545L42.7399 41.2973C43.3618 42.3926 45.848 43.3317 47.7124 43.4885C49.5774 43.6452 52.0636 44.7405 52.763 45.2101C53.4624 45.6797 52.2968 46.3053 52.2968 46.3053C49.888 44.8966 44.4493 43.2537 43.3612 43.2537C42.2737 43.2537 37.1449 36.993 35.7468 34.9586C34.3481 32.9241 34.9699 31.2806 34.9699 29.8718C34.9699 28.4631 36.9124 24.3942 36.9124 24.3942C36.9124 24.3942 36.5237 22.4378 33.8824 24.5509C31.7412 26.2637 29.6006 29.982 28.6175 34.8295C29.6012 33.9036 30.4637 33.0809 30.4637 33.0809L28.44 35.8127C28.3025 36.648 28.1962 37.511 28.1325 38.4017C28.0843 39.0797 28.0631 39.7129 28.0625 40.3103L29.7637 38.9494L28.0693 40.8995C28.125 43.1819 28.5118 44.879 29.0037 46.2556L30.3074 44.1922L29.5125 47.5171C29.9237 48.4348 30.3525 49.2173 30.6956 49.9827C31.3049 51.3411 32.7424 53.0186 34.0262 54.3688L36.0568 52.6428L35.0618 55.427C35.6193 55.9828 36.0724 56.4146 36.2899 56.6343C37.0668 57.4167 35.9793 57.8082 35.9793 57.8082C32.4049 56.4001 27.9762 47.7141 27.9762 47.7141C27.9762 47.7141 24.0137 48.0269 22.1487 45.2101C20.2837 42.3932 21.605 38.8713 22.615 36.8369C23.625 34.8024 22.615 35.3501 22.615 35.3501C22.615 35.3501 20.75 35.6629 20.2062 35.8977C19.6625 36.1325 16.3987 40.0453 15.9325 40.5149C15.4662 40.9845 15.3887 41.7669 15.3887 41.7669L16.7094 40.5929C16.7094 40.5929 16.3206 41.7669 15.7769 42.7841C15.2331 43.8013 15 45.8358 15 45.8358L16.1656 44.1922V49.2003C15.7769 51.5482 16.1656 52.3306 16.1656 52.3306L16.9425 48.8874C16.9425 48.8874 16.9425 51.5482 16.9425 52.4087C16.9425 53.2691 18.9625 57.2606 20.905 60.5471C22.8475 63.8335 35.5124 64.225 38.1543 63.9122C40.7649 63.6031 48.7605 58.862 52.848 55.1248L49.1105 55.6951L54.3955 53.5002C55.1086 52.6485 55.7792 51.7081 56.393 50.7544L53.3836 52.0171C53.4936 51.9435 55.1692 50.9508 56.913 49.921C58.8774 46.6862 60.143 43.5659 60.143 43.5659C60.143 43.5659 63.0955 41.9224 64.2611 40.2008C65.4273 38.4798 64.8836 37.2278 64.8061 35.0366Z" fill="black"/>
<path d="M54.3947 32.0629C54.7809 32.0629 55.0941 31.7476 55.0941 31.3585C55.0941 30.9695 54.7809 30.6542 54.3947 30.6542C54.0084 30.6542 53.6953 30.9695 53.6953 31.3585C53.6953 31.7476 54.0084 32.0629 54.3947 32.0629Z" fill="black"/>
<path d="M59.8335 37.5407C60.2626 37.5407 60.6104 37.1904 60.6104 36.7583C60.6104 36.3261 60.2626 35.9758 59.8335 35.9758C59.4045 35.9758 59.0566 36.3261 59.0566 36.7583C59.0566 37.1904 59.4045 37.5407 59.8335 37.5407Z" fill="black"/>
<path d="M54.3952 41.4534C55.4052 41.5314 59.2127 41.3753 60.3002 40.827C61.3877 40.2794 62.7864 38.6359 62.4758 37.1491C62.1652 35.6623 61.3102 32.5319 59.3677 31.2799C57.4252 30.0279 55.9489 29.4016 55.1721 29.4016C54.3952 29.4016 53.074 29.3235 52.4527 30.1059C52.4527 30.1059 51.5977 30.6536 51.2096 33.0015C50.8208 35.3494 50.3546 37.1491 51.054 38.6359C51.7533 40.1233 53.3852 41.3753 54.3952 41.4534ZM54.939 30.4194C56.1046 31.4366 56.0264 32.2191 55.6383 32.8454C55.2496 33.4717 54.7833 34.0193 54.7833 34.0193L54.2396 34.1761L53.5402 33.7065L53.2296 34.1761L53.3852 35.9757C53.3852 35.9757 54.1621 37.7754 55.2502 37.9321C56.3377 38.0889 57.1152 38.0889 57.1152 37.7754C57.1152 37.4619 56.8821 36.8362 57.4258 36.3666C57.9696 35.8971 59.6789 35.0366 60.2233 35.5055C60.7671 35.9751 61.3889 38.4791 60.8452 39.0268C60.3014 39.5744 60.3789 39.4964 59.9127 39.0268C59.4464 38.5572 58.4364 36.4441 58.4364 36.4441C58.4364 36.4441 57.5814 36.4441 57.5814 37.1484C57.5814 37.8528 58.1252 38.2437 57.3483 38.5572C56.5714 38.87 54.3183 38.4004 53.9296 38.0095C53.5408 37.618 52.9971 36.8356 52.9196 36.0532C52.8421 35.2707 52.5308 34.4883 52.764 34.0187C52.9971 33.5491 53.3077 32.688 53.619 33.0796C53.9296 33.4705 54.2408 34.0187 54.629 33.6272C55.0177 33.2363 55.2508 32.61 55.2508 32.61C55.2508 32.61 53.619 32.2971 52.5315 31.358C52.5302 31.3586 53.7733 29.4022 54.939 30.4194ZM56.8039 36.5234L56.1046 37.2277C56.1046 37.2277 54.8614 36.993 54.1621 35.9757C53.4627 34.9585 54.8615 34.4889 54.8615 34.4889C55.9489 35.0366 56.8039 36.5234 56.8039 36.5234Z" fill="black"/>
<defs>
<linearGradient id="paint0_linear" x1="-3.5443" y1="11.8519" x2="92.9047" y2="54.7202" gradientUnits="userSpaceOnUse">
<stop stop-color="#F9804B"/>
<stop offset="1" stop-color="#FE9013"/>
</linearGradient>
</defs>
</svg>
