<svg width="80" height="80" viewBox="0 0 80 80" fill="none" xmlns="http://www.w3.org/2000/svg" id="panda">
<circle cx="40" cy="40" r="39" fill="white" stroke="url(#paint0_linear)" stroke-width="2"/>
<path d="M64.7501 50.5338C67.0937 46.0938 69 40.6492 69 34.8465C69 31.9318 68.0706 28.6184 66.5138 25.9835C65.1526 23.6795 62.6283 20.7028 58.3301 19.6053C52.8905 18.2166 47.3792 19.5117 42.9507 20.5524C41.3503 20.9285 39.8386 21.2837 38.5437 21.4594C35.64 21.853 32.5721 21.7954 29.9349 21.6956H29.9331C29.5205 21.6799 29.1174 21.6633 28.7283 21.6473C27.0621 21.5784 23.2248 21.5123 23.2248 21.5123C23.0154 20.6402 22.538 19.9258 21.9421 19.596C21.6896 19.4586 21.414 19.3889 21.1355 19.3921C20.8569 19.3954 20.5826 19.4714 20.3325 19.6146C19.5129 20.0479 19.1198 21.0108 19.3056 22.0979C17.9923 22.7583 16.7093 24.0727 15.9311 25.1064C15.263 25.9939 14.6965 27.395 14.1484 28.7501C13.5903 30.1301 13.0133 31.5571 12.4359 32.1334C12.2945 32.2733 12.1695 32.4342 12.064 32.6121C12.0622 32.6121 12.0604 32.6109 12.0584 32.6105C11.9377 32.5821 11.8132 32.5835 11.6929 32.6146C11.5727 32.6456 11.4593 32.7057 11.3601 32.7909C11.2609 32.8761 11.178 32.9846 11.1168 33.1094C11.0556 33.2341 11.0174 33.3725 11.0047 33.5155C10.992 33.6585 11.005 33.803 11.043 33.9398C11.0809 34.0766 11.1429 34.2026 11.225 34.3098C11.3071 34.4169 11.4075 34.5029 11.5198 34.5621C11.632 34.6214 11.7536 34.6526 11.8768 34.6537C11.981 35.0329 12.1218 35.397 12.2965 35.739C13.4585 38.0738 15.2966 39.5253 16.9184 40.8057C17.8124 41.5116 18.6567 42.1784 19.3108 42.9231C19.8015 43.5013 20.2284 44.1489 20.5814 44.8507C20.5853 44.8597 20.5905 44.8673 20.5947 44.876C21.2587 46.1729 21.7854 47.7551 21.8837 49.2662C22.0081 51.1754 22.3023 56.3304 22.3948 57.9588C22.0753 58.0774 21.7755 58.2591 21.5086 58.4959C21.31 58.6712 21.1643 58.9157 21.0925 59.194C21.0208 59.4723 21.0267 59.77 21.1094 60.0442C21.1879 60.3239 21.3406 60.5673 21.5454 60.7391C21.7503 60.911 21.9966 61.0023 22.2488 61H27.6801C27.8551 61.0002 28.028 60.9557 28.1866 60.8695C28.3453 60.7833 28.4858 60.6576 28.5983 60.5012C29.7995 58.834 32.7957 54.5371 34.6919 50.6385C42.0323 50.6301 47.0454 50.3192 49.9697 49.6886C50.4052 52.9029 50.9805 56.5655 51.1907 57.8864C51.0092 57.9855 50.8376 58.1075 50.6788 58.2502C50.4616 58.4457 50.3022 58.7157 50.223 59.0224C50.1438 59.329 50.1488 59.6568 50.2373 59.96C50.3257 60.2631 50.4932 60.5264 50.7163 60.7128C50.9394 60.8993 51.2068 60.9996 51.4812 60.9997H56.5721C56.8732 60.9993 57.1652 60.8786 57.3994 60.6576C59.0783 59.0679 62.1503 55.4367 64.712 50.6063C64.7262 50.5832 64.7389 50.559 64.7501 50.5338ZM28.8733 35.2565C27.2311 39.2734 24.3406 42.5228 21.2615 43.8481C20.9079 43.2025 20.4956 42.6034 20.0316 42.0613C19.3114 41.2413 18.4299 40.5455 17.4967 39.8086C15.8921 38.5413 14.2323 37.2309 13.1888 35.1342C12.5536 33.8579 12.7908 33.3637 13.1065 33.0488C13.8522 32.3046 14.4494 30.8278 15.0817 29.2641C15.5991 27.9844 16.1341 26.6612 16.7064 25.9014C17.3989 24.9813 18.6305 23.709 19.8223 23.1511C19.9394 23.0961 20.0447 23.0117 20.1306 22.9038C20.7821 24.0154 22.3338 23.8515 22.7233 22.8393C22.7505 22.7666 22.7706 22.6906 22.7834 22.6127C24.4234 22.8617 27.0367 22.7819 28.6919 22.8507C28.9725 22.8623 29.2618 22.8741 29.5548 22.8856C30.7618 26.8422 30.5238 31.2191 28.8733 35.2565ZM60.524 46.2852C59.5624 46.0767 54.7899 45.2342 50.7872 47.9726C50.5968 46.4624 50.4669 45.2065 50.4669 44.5927C50.4669 44.433 50.4126 44.2798 50.3158 44.1669C50.2191 44.054 50.0879 43.9906 49.9511 43.9906C49.8143 43.9906 49.6831 44.054 49.5864 44.1669C49.4897 44.2798 49.4353 44.433 49.4353 44.5927C49.4353 45.3055 49.5912 46.7746 49.8121 48.4983C47.3147 49.0429 43.1963 49.346 37.293 49.418C38.4682 48.585 39.4053 47.3893 40.0897 45.8341C41.0428 43.6698 41.464 40.8499 41.3079 37.6791C41.132 34.1069 38.7803 29.2953 36.8906 25.4295C36.4529 24.5343 36.0338 23.6769 35.6848 22.918C36.6787 22.8705 37.678 22.7889 38.6624 22.6554C39.9997 22.4742 41.5318 22.114 43.1538 21.7322C47.4876 20.7137 52.8811 19.446 58.1091 20.7811C65.2918 22.6156 67.9684 30.3821 67.9684 34.8465C67.9684 39.9849 66.4042 44.8407 64.3859 48.9204C63.7933 47.886 62.5584 46.727 60.524 46.2852Z" fill="#4B9200"/>
<path d="M17.8934 28.1939C15.5043 27.2701 14.1147 29.8646 15.6352 31.3883C16.4666 32.221 17.257 34.1507 19.0636 33.9906C21.9339 33.7369 21.6696 29.6525 17.8934 28.1939ZM16.8112 30.7043C16.6695 30.7043 16.531 30.6617 16.4132 30.5818C16.2954 30.502 16.2036 30.3886 16.1493 30.2558C16.0951 30.1231 16.0809 29.977 16.1086 29.8361C16.1362 29.6952 16.2044 29.5658 16.3046 29.4642C16.4048 29.3626 16.5324 29.2934 16.6714 29.2653C16.8104 29.2373 16.9544 29.2517 17.0853 29.3067C17.2162 29.3617 17.3281 29.4548 17.4068 29.5742C17.4855 29.6937 17.5275 29.8342 17.5275 29.9778C17.5275 30.1705 17.452 30.3552 17.3176 30.4915C17.1833 30.6277 17.0011 30.7042 16.8112 30.7043Z" fill="#4B9200"/>
<path d="M40.2534 51.1105C40.2471 51.0787 40.2322 51.0504 40.2113 51.0304C40.1903 51.0104 40.1645 50.9996 40.138 51C39.5727 51.0074 36.5797 51.0461 35.3108 51.0523C35.2913 51.0522 35.272 51.0584 35.255 51.0701C35.2379 51.0818 35.2236 51.0988 35.2134 51.1193C34.3977 52.7222 32.9669 55.2164 32.0219 56.8401C32.0064 56.8669 31.9987 56.8994 32.0002 56.9323C32.0017 56.9652 32.0122 56.9964 32.03 57.0209L33.3505 58.8507L33.3364 58.8768C33.3317 58.887 33.3258 58.8972 33.3211 58.9073C33.2181 59.116 33.1619 59.3549 33.1583 59.5993C33.1547 59.8437 33.2039 60.0849 33.3007 60.2981C33.3975 60.5112 33.5386 60.6886 33.7092 60.812C33.8799 60.9354 34.0741 61.0003 34.2718 61H39.8868C40.0353 60.9999 40.1823 60.9631 40.3191 60.8917C40.456 60.8203 40.5799 60.7158 40.6836 60.5843C40.7873 60.4528 40.8686 60.297 40.9229 60.1261C40.9772 59.9552 41.0033 59.7725 40.9997 59.5889C40.9809 58.6429 40.9315 57.1577 40.8093 55.546C40.7081 54.0532 40.5223 52.5711 40.2534 51.1105Z" fill="#4B9200"/>
<path d="M67.468 47.0889C67.4604 47.0636 67.4464 47.0415 67.4278 47.0256C67.4092 47.0097 67.387 47.0008 67.3639 47.0001C67.3409 46.9993 67.3182 47.0067 67.2989 47.0213C67.2795 47.0359 67.2644 47.0569 67.2556 47.0818C67.1031 47.5141 66.9319 47.9372 66.7429 48.3495C65.1619 51.8023 63.2445 55.0311 61.0286 57.9719C61.0097 57.9966 60.9995 58.0286 61 58.0617C61.0005 58.0947 61.0117 58.1264 61.0313 58.1502L61.4144 58.6212C61.3018 58.7766 61.2074 58.9486 61.1335 59.1328C61.0542 59.3363 61.0204 59.5599 61.0351 59.7828C61.0498 60.0057 61.1126 60.2206 61.2177 60.4076C61.3112 60.5855 61.4418 60.733 61.5972 60.8366C61.7526 60.9401 61.9279 60.9963 62.1069 61H67.9229C68.0665 60.9999 68.2086 60.9664 68.341 60.9014C68.4733 60.8364 68.5931 60.7412 68.6935 60.6214C68.7938 60.5017 68.8725 60.3598 68.9251 60.204C68.9777 60.0483 69.0031 59.8819 68.9997 59.7145C68.9422 57.0216 68.6751 51.0536 67.468 47.0889Z" fill="#4B9200"/>
</svg>
