<svg width="80" height="80" viewBox="0 0 80 80" fill="none" xmlns="http://www.w3.org/2000/svg" id="eagle">
<circle cx="40" cy="40" r="39" fill="white" stroke="url(#paint0_linear)" stroke-width="2"/>
<path d="M30.6416 41.2826L34.2912 27.837L43.6367 21.7464H45.5354L55.0267 16V17.8386L46.1832 23.0102L57.5086 18.5282L61.5969 18.6434L58.8228 21.2863L47.287 24.9636L60.575 22.5507L65.5394 22.6654L61.1589 24.5041L49.3314 26.5727L61.5969 26.3432L67 27.607L61.5969 29.3309L50.4998 28.6413L59.4067 30.4804L61.8892 32.5491L58.3847 32.8938L51.3759 30.8247L58.2383 34.1577L59.4067 36.3416L52.69 36.6863L54.4423 37.9394L55.0267 40.2488L52.8359 41.2826L53.5662 43.2365L51.8139 44.0413L51.9598 45.4204H48.8202V46.9147H46.1832L47.1412 48.0638L43.1993 47.6043L47.1412 49.5572L50.2082 51.2815L61.5969 52.0858L63.2033 53.6944L61.5969 54.6145L53.5662 52.6611L62.473 55.534L63.7872 56.7979H60.1363L53.5662 54.6145L61.4511 57.6022L62.473 58.9822L60.1363 59.5556L48.1637 55.0745L44.5128 54.8445L46.9954 58.2917L44.6593 57.7174L46.1832 59.5556L38.0885 58.9822L35.1679 57.1426L34.7299 55.0745L32.539 50.3615L24.5082 46.109L26.5601 46.1417L24.5082 44.6092L27.34 44.4564L25.393 43.6135L27.2426 43.3835L25.5878 42.4639L27.8265 41.9277L25.9769 40.6248L30.6416 41.2826Z" fill="#4B9200"/>
<path d="M30.7051 39.228L20.7627 36.6848L19.4692 33.7778L17.4264 35.8546V37.4113L23.4187 39.9029L30.2956 40.8889L30.7051 39.228Z" fill="#4B9200"/>
<path d="M39.5576 60.6635L37.6831 61.7587V62.7558L37.9945 63.5024L36.4329 62.9543V61.6601L35.4172 62.9048L35.9639 64L34.2461 62.6058L36.1207 60.6635L37.4478 60.4445L39.5576 60.6635Z" fill="#4B9200"/>
<path d="M35.1309 60.4445L33.784 61.0047L33.3604 62.1723L34.2776 63.1111L33.784 62.179L35.1309 60.4445Z" fill="#4B9200"/>
<path d="M35.1309 59.555L33.1668 60.7858L32.7795 61.5089L32.1162 61.7031L32.9324 60.2936L31.5481 60.7957L31.1889 62.2222L30.7186 61.4987L31.5211 60.0204L30.4695 60.7336L30.3595 61.8501L29.8194 60.8886L31.1059 59.3898H33.4852L34.2189 58.6666L35.1309 59.555Z" fill="#4B9200"/>
<path d="M13.5136 43.0751L14.6742 42.1379H16.5429L16.6082 41.6171L18.5422 40.8889H24.3036L26.2783 42.1902L23.1838 42.503L25.956 43.5556L22.9261 44.0112L25.7631 44.7917H23.1838L24.9896 46.2222H23.1529L15.9968 44.4276H14.1596L12.9996 44.9737L13.5136 43.0751ZM18.2846 42.8099C18.5496 42.8099 18.7641 42.6364 18.7641 42.423C18.7641 42.2086 18.549 42.0355 18.2846 42.0355C18.019 42.0355 17.8039 42.2091 17.8039 42.423C17.8039 42.6364 18.0196 42.8099 18.2846 42.8099Z" fill="#4B9200"/>
</svg>
