<svg width="80" height="80" viewBox="0 0 80 80" fill="none" xmlns="http://www.w3.org/2000/svg" id="gorilla">
<circle cx="40" cy="40" r="39" fill="white" stroke="url(#paint0_linear)" stroke-width="2"/>
<path d="M42.2709 28.0862C42.2709 28.0862 44.6454 25.7962 46.7743 25.0328C46.7743 25.0328 41.7796 18.2264 31.2169 16C31.2169 16 27.6141 18.1628 26.959 22.4247C26.959 22.4247 24.1751 22.9973 24.1751 24.4603L27.5322 25.7325C27.5322 25.7325 33.919 24.7784 34.7378 24.9692C35.5566 25.16 34.9834 27.45 34.2465 27.8317C34.2465 27.8317 34.4921 28.595 34.9834 28.9131C34.9834 28.9131 33.3458 31.5212 29.088 30.1217C29.088 30.1217 31.4625 34.0656 25.4852 35.0834C25.4852 35.0834 22.0462 34.3201 21.5549 30.7578C21.5549 30.7578 25.5671 31.0123 25.9765 31.4576C25.9765 31.4576 26.8772 30.9487 23.6019 30.5034C23.6019 30.5034 23.1106 30.1217 24.912 28.9131L23.6838 28.8495L23.3563 26.1778C23.3563 26.1778 15.8232 27.5137 13.9399 32.0301C13.9399 32.0301 9.76394 41.3809 19.0165 61.6094C19.0165 61.6094 25.1576 62.5635 29.2517 61.4185C29.2517 61.4185 29.4974 58.4924 28.9242 58.1107L26.2221 56.9021C26.2221 56.9021 31.5444 49.6504 29.9068 48.3146C29.9068 48.3146 28.351 47.1696 27.9416 46.4698C27.9416 46.4698 30.2343 47.3604 31.135 47.3604C31.135 47.3604 32.1995 44.0526 34.2465 41.699C34.2465 41.699 29.3336 57.6018 31.3806 61.991C31.3806 61.991 45.1367 65.0444 44.3998 60.528C44.3998 60.528 44.4817 58.8741 42.3528 57.4746C42.3528 57.4746 46.1193 54.1668 46.2831 53.7215C46.2831 53.7215 49.3946 52.3857 47.1019 46.9151C44.8092 41.4445 47.02 46.7879 47.02 46.7879C47.02 46.7879 62.6593 35.6559 52.5879 26.8775C52.5879 26.8775 48.5757 23.1881 42.2709 28.0862Z" fill="black"/>
<path d="M33.625 26.0511H31.4499H25.6777L24.1719 25.4C24.1719 25.4 24.8411 27.6788 25.1757 27.8416C25.1757 27.8416 27.0162 27.923 28.02 27.2719C28.02 27.2719 29.9441 28.7368 30.5297 28.8182C30.5297 28.8182 33.374 27.5974 33.625 26.0511Z" fill="black"/>
<path d="M27.5602 27.9636L26.8788 29.0512C26.8788 29.0512 26.3109 29.6727 27.5602 29.6727H28.4688V28.2744C28.4688 28.2744 28.0145 27.9636 27.7873 27.9636" fill="black"/>
<path d="M26.75 27.9636L26.0134 28.8182L25.0312 28.7114C25.0312 28.7114 25.7679 28.017 26.75 27.9636Z" fill="black"/>
<path d="M56.4148 38.248C56.4148 38.248 52.7543 44.1715 49.0938 46.6825L49.6632 50.4169C49.6632 50.4169 51.5341 50.0306 51.6968 50.1593C51.8595 50.2881 56.9029 58.1431 56.8215 58.5938C56.8215 58.5938 55.1133 59.1733 55.1133 59.624L54.9506 60.9761C54.9506 60.9761 63.9799 61.6843 66.583 60.9761C66.583 60.9761 69.3487 58.5294 67.1524 53.2498C67.1524 53.2498 63.2478 49.773 63.1665 48.6141C63.1665 48.6141 62.4344 46.6181 63.6545 44.1715C63.7359 44.0427 65.6068 37.733 56.4148 38.248Z" fill="black"/>
<path d="M49.2801 52.026C49.2801 52.026 49.3677 54.0685 43.9375 57.3726C43.9375 57.3726 46.3898 59.7154 45.8643 60.4363L48.3167 60.196C48.3167 60.196 49.9808 56.5916 49.9808 56.2312C49.9808 56.2312 48.7546 55.4502 48.5794 55.0297C48.5794 55.0297 52.9586 53.2275 51.2945 52.026C50.8566 51.8458 49.2801 51.8458 49.2801 52.026Z" fill="black"/>
<defs>
<linearGradient id="paint0_linear" x1="-3.5443" y1="11.8519" x2="92.9047" y2="54.7202" gradientUnits="userSpaceOnUse">
<stop stop-color="#F9804B"/>
<stop offset="1" stop-color="#FE9013"/>
</linearGradient>
</defs>
</svg>
